<svg xmlns="http://www.w3.org/2000/svg" width="1421.194" height="245.116" viewBox="0 0 1421.194 245.116">
  <g id="Group_19" data-name="Group 19" transform="translate(8661.677 -4884.608)">
    <path id="Icon_awesome-instagram" data-name="Icon awesome-instagram" d="M118.93,61.109c-33.743,0-60.96,27.663-60.96,61.959s27.217,61.959,60.96,61.959,60.96-27.663,60.96-61.959S152.673,61.109,118.93,61.109Zm0,102.24c-21.806,0-39.632-18.064-39.632-40.281S97.072,82.786,118.93,82.786s39.632,18.064,39.632,40.281-17.826,40.281-39.632,40.281ZM196.6,58.575a14.221,14.221,0,1,1-14.219-14.452A14.3,14.3,0,0,1,196.6,58.575Zm40.375,14.667c-.9-19.359-5.252-36.506-19.206-50.635C203.871,8.479,187,4.058,167.953,3.087c-19.63-1.132-78.468-1.132-98.1,0C50.861,4,33.99,8.425,20.036,22.554S1.785,53.829.83,73.188C-.284,93.14-.284,152.941.83,172.893c.9,19.359,5.252,36.506,19.206,50.635s30.772,18.55,49.818,19.52c19.63,1.132,78.468,1.132,98.1,0,19.047-.917,35.918-5.338,49.818-19.52,13.9-14.128,18.251-31.276,19.206-50.635,1.114-19.952,1.114-79.7,0-99.651ZM211.617,194.3a40.459,40.459,0,0,1-22.6,22.972c-15.651,6.309-52.79,4.853-70.085,4.853s-54.487,1.4-70.085-4.853a40.458,40.458,0,0,1-22.6-22.972c-6.207-15.908-4.775-53.654-4.775-71.233s-1.379-55.38,4.775-71.233a40.459,40.459,0,0,1,22.6-22.972c15.651-6.309,52.79-4.853,70.085-4.853s54.487-1.4,70.085,4.853a40.458,40.458,0,0,1,22.6,22.972c6.207,15.908,4.775,53.654,4.775,71.233S217.825,178.447,211.617,194.3Z" transform="translate(-8661.672 4885.827)" fill="#7d69ac"/>
    <path id="Icon_awesome-facebook" data-name="Icon awesome-facebook" d="M251.407,123.866c0-68.115-56.137-123.3-125.422-123.3S.563,55.751.563,123.866c0,61.542,45.865,112.554,105.825,121.812V159.51H74.526V123.866h31.861V96.7c0-30.9,18.712-47.969,47.372-47.969a196.238,196.238,0,0,1,28.078,2.406V81.466H166.019c-15.577,0-20.437,9.506-20.437,19.256v23.144h34.784L174.8,159.51H145.582v86.168C205.542,236.421,251.407,185.409,251.407,123.866Z" transform="translate(-8296.151 4884.046)" fill="#7d69ac"/>
    <path id="Icon_ionic-logo-youtube" data-name="Icon ionic-logo-youtube" d="M294.949,53.02c0-25.747-19.2-46.46-42.914-46.46C219.908,5.072,187.142,4.5,153.681,4.5H143.243c-33.4,0-66.227.572-98.354,2.06C21.228,6.56,2.033,27.387,2.033,53.134.583,73.5-.055,93.872,0,114.241q-.087,30.554,1.972,61.164c0,25.747,19.2,46.631,42.856,46.631,33.751,1.545,68.372,2.231,103.573,2.174q52.888.172,103.573-2.174c23.719,0,42.914-20.884,42.914-46.631,1.392-20.426,2.03-40.8,1.972-61.222Q297.037,83.63,294.949,53.02Zm-174.9,117.351V57.94l84.088,56.187Z" transform="translate(-7916.474 4894.532)" fill="#7d69ac"/>
    <path id="Icon_awesome-pinterest" data-name="Icon awesome-pinterest" d="M250.844,121.392c0,66.749-56.137,120.83-125.422,120.83A129.3,129.3,0,0,1,88.3,236.814c5.108-8.039,12.745-21.194,15.577-31.669,1.517-5.652,7.788-28.746,7.788-28.746,4.1,7.5,16.032,13.886,28.726,13.886,37.829,0,65.088-33.521,65.088-75.178,0-39.9-33.834-69.769-77.327-69.769-54.114,0-82.89,34.982-82.89,73.131,0,17.735,9.811,39.806,25.438,46.822,2.377,1.072,3.641.585,4.2-1.608.4-1.657,2.529-9.891,3.49-13.691a3.521,3.521,0,0,0-.86-3.459c-5.108-6.09-9.255-17.2-9.255-27.576,0-26.651,20.937-52.425,56.642-52.425,30.8,0,52.394,20.22,52.394,49.16,0,32.692-17.144,55.348-39.447,55.348-12.289,0-21.544-9.793-18.56-21.827,3.54-14.373,10.368-29.866,10.368-40.244,0-9.257-5.158-17-15.88-17-12.593,0-22.707,12.521-22.707,29.33a42.228,42.228,0,0,0,3.742,17.93S82.435,189.8,80.159,199.25c-2.529,10.426-1.517,25.14-.455,34.69C33.075,216.351,0,172.6,0,121.392,0,54.644,56.137.563,125.422.563S250.844,54.644,250.844,121.392Z" transform="translate(-7491.327 4887.502)" fill="#7d69ac"/>
  </g>
</svg>
